<svg width="50" height="50" viewBox="0 0 50 50" fill="none" xmlns="http://www.w3.org/2000/svg">
<path d="M16.6667 35.8333H15.0001C14.5398 35.8333 14.1667 36.2064 14.1667 36.6666C14.1667 37.1268 14.5398 37.4999 15.0001 37.4999H16.6667C17.1269 37.4999 17.5001 37.1268 17.5001 36.6666C17.5001 36.2064 17.1269 35.8333 16.6667 35.8333Z" fill="#292929"/>
<path d="M40.0001 35.8333H20.0001C19.5399 35.8333 19.1667 36.2064 19.1667 36.6666C19.1667 37.1268 19.5399 37.4999 20.0001 37.4999H40.0001C40.4603 37.4999 40.8334 37.1268 40.8334 36.6666C40.8334 36.2064 40.4603 35.8333 40.0001 35.8333Z" fill="#292929"/>
<path d="M16.6667 30.8333H15.0001C14.5398 30.8333 14.1667 31.2064 14.1667 31.6666C14.1667 32.1268 14.5398 32.4999 15.0001 32.4999H16.6667C17.1269 32.4999 17.5001 32.1268 17.5001 31.6666C17.5001 31.2064 17.1269 30.8333 16.6667 30.8333Z" fill="#292929"/>
<path d="M40.0001 30.8333H20.0001C19.5399 30.8333 19.1667 31.2064 19.1667 31.6666C19.1667 32.1268 19.5399 32.4999 20.0001 32.4999H40.0001C40.4603 32.4999 40.8334 32.1268 40.8334 31.6666C40.8334 31.2064 40.4603 30.8333 40.0001 30.8333Z" fill="#292929"/>
<path d="M16.6667 25.8333H15.0001C14.5398 25.8333 14.1667 26.2064 14.1667 26.6666C14.1667 27.1268 14.5398 27.4999 15.0001 27.4999H16.6667C17.1269 27.4999 17.5001 27.1268 17.5001 26.6666C17.5001 26.2064 17.1269 25.8333 16.6667 25.8333Z" fill="#292929"/>
<path d="M40.0001 25.8333H20.0001C19.5399 25.8333 19.1667 26.2064 19.1667 26.6666C19.1667 27.1268 19.5399 27.4999 20.0001 27.4999H40.0001C40.4603 27.4999 40.8334 27.1268 40.8334 26.6666C40.8334 26.2064 40.4603 25.8333 40.0001 25.8333Z" fill="#292929"/>
<path d="M16.6667 20.8333H15.0001C14.5398 20.8333 14.1667 21.2064 14.1667 21.6666C14.1667 22.1268 14.5398 22.4999 15.0001 22.4999H16.6667C17.1269 22.4999 17.5001 22.1268 17.5001 21.6666C17.5001 21.2064 17.1269 20.8333 16.6667 20.8333Z" fill="#292929"/>
<path d="M40.0001 20.8333H20.0001C19.5399 20.8333 19.1667 21.2064 19.1667 21.6666C19.1667 22.1268 19.5399 22.4999 20.0001 22.4999H40.0001C40.4603 22.4999 40.8334 22.1268 40.8334 21.6666C40.8334 21.2064 40.4603 20.8333 40.0001 20.8333Z" fill="#292929"/>
<path d="M16.6667 15.8333H15.0001C14.5398 15.8333 14.1667 16.2064 14.1667 16.6666C14.1667 17.1268 14.5398 17.4999 15.0001 17.4999H16.6667C17.1269 17.4999 17.5001 17.1268 17.5001 16.6666C17.5001 16.2064 17.1269 15.8333 16.6667 15.8333Z" fill="#292929"/>
<path d="M40.0001 15.8333H20.0001C19.5399 15.8333 19.1667 16.2064 19.1667 16.6666C19.1667 17.1268 19.5399 17.4999 20.0001 17.4999H40.0001C40.4603 17.4999 40.8334 17.1268 40.8334 16.6666C40.8334 16.2064 40.4603 15.8333 40.0001 15.8333Z" fill="#292929"/>
<path d="M45.8226 12.4475C45.8184 12.3745 45.8041 12.3024 45.7801 12.2333C45.7709 12.2067 45.7642 12.1808 45.7526 12.155C45.712 12.0644 45.6556 11.9817 45.5859 11.9108L33.9192 0.244167C33.8484 0.174479 33.7657 0.118021 33.6751 0.0775C33.6492 0.0658333 33.6234 0.0591667 33.5976 0.05C33.5279 0.0260417 33.4553 0.0114583 33.3817 0.00666667C33.3676 0.00916667 33.3517 0 33.3334 0H10.0001C9.53985 0 9.16673 0.373125 9.16673 0.833333V3.33333H5.00006C4.53985 3.33333 4.16673 3.70646 4.16673 4.16667V49.1667C4.16673 49.6269 4.53985 50 5.00006 50H40.0001C40.4603 50 40.8334 49.6269 40.8334 49.1667V45H45.0001C45.4603 45 45.8334 44.6269 45.8334 44.1667V12.5C45.8334 12.4817 45.8242 12.4658 45.8226 12.4475ZM34.1667 2.845L42.9884 11.6667H34.1667V2.845ZM39.1667 48.3333H5.83339V5H9.16673V44.1667C9.16673 44.6269 9.53985 45 10.0001 45H39.1667V48.3333ZM44.1667 43.3333H10.8334V1.66667H32.5001V12.5C32.5001 12.9602 32.8732 13.3333 33.3334 13.3333H44.1667V43.3333Z" fill="#292929"/>
<path d="M20.0001 7.5H15.0001C14.5399 7.5 14.1667 7.87312 14.1667 8.33333V13.3333C14.1667 13.7935 14.5399 14.1667 15.0001 14.1667H20.0001C20.4603 14.1667 20.8334 13.7935 20.8334 13.3333V8.33333C20.8334 7.87312 20.4603 7.5 20.0001 7.5ZM19.1667 12.5H15.8334V9.16667H19.1667V12.5Z" fill="#292929"/>
</svg>
